<?xml version="1.0" standalone="no"?>
<!DOCTYPE svg PUBLIC "-//W3C//DTD SVG 20010904//EN"
 "http://www.w3.org/TR/2001/REC-SVG-20010904/DTD/svg10.dtd">
<svg version="1.0" xmlns="http://www.w3.org/2000/svg"
 width="512.000000pt" height="512.000000pt" viewBox="0 0 512.000000 512.000000"
 preserveAspectRatio="xMidYMid meet">
<metadata>
Created by potrace 1.14, written by Peter Selinger 2001-2017
</metadata>
<g transform="translate(0.000000,512.000000) scale(0.100000,-0.100000)"
fill="#000000" stroke="none">
<path d="M0 2560 l0 -2560 2560 0 2560 0 0 2560 c0 2553 0 2560 -20 2560 -19
0 -20 -7 -20 -176 l0 -176 -32 -26 c-17 -15 -49 -43 -69 -62 -69 -64 -92 -81
-105 -76 -8 3 -13 0 -11 -6 1 -6 -11 -18 -28 -27 -16 -9 -31 -19 -33 -23 -2
-4 -20 -15 -39 -25 -35 -16 -103 -79 -103 -95 0 -13 24 -9 48 8 13 9 25 14 28
11 6 -5 -22 -24 -133 -88 -65 -37 -89 -46 -95 -37 -5 10 -8 8 -8 -4 0 -10 -7
-18 -15 -18 -9 0 -26 -6 -38 -14 -60 -40 -264 -121 -400 -160 -270 -78 -347
-82 -347 -18 0 19 10 38 33 58 36 33 120 130 125 144 2 5 19 19 38 30 40 25
36 40 -11 40 l-34 0 20 57 c26 76 25 150 -3 210 -13 27 -27 52 -33 56 -16 12
-84 2 -153 -23 -48 -17 -67 -31 -83 -57 -27 -43 -22 -107 10 -152 23 -32 21
-51 -5 -51 -8 0 -36 -11 -62 -25 -64 -33 -102 -33 -207 3 -175 59 -294 76
-545 76 -280 1 -340 -2 -448 -26 -48 -10 -132 -27 -187 -37 -55 -10 -181 -46
-280 -79 -99 -33 -189 -62 -200 -64 -25 -4 -22 -41 6 -80 10 -15 19 -30 19
-34 0 -11 97 -127 148 -177 27 -27 72 -65 100 -85 28 -21 94 -68 146 -106 107
-77 105 -72 57 -155 -15 -25 -35 -66 -46 -91 -10 -25 -22 -49 -26 -54 -8 -9
-50 29 -97 91 -18 23 -62 72 -97 108 -151 157 -295 403 -295 507 0 28 -16 37
-35 19 -6 -5 -64 -36 -131 -71 -93 -47 -140 -79 -203 -137 -45 -41 -94 -94
-110 -116 -56 -83 -141 -256 -155 -317 -8 -34 -17 -64 -19 -67 -21 -21 -152
-92 -158 -86 -4 4 -12 52 -16 105 -8 92 -3 195 15 298 l8 45 8 -50 c18 -120
57 -215 89 -215 11 0 3 69 -16 130 -8 25 -14 60 -13 78 1 17 -3 32 -7 32 -5 0
-2 7 7 15 19 19 32 20 17 1 -9 -10 -9 -16 -1 -21 8 -5 8 -11 -1 -21 -6 -8 -9
-17 -5 -21 3 -3 6 -1 6 5 0 7 8 12 19 12 23 0 31 34 23 109 -7 76 -3 179 9
221 31 108 48 151 81 209 20 35 35 68 32 72 -7 12 -76 0 -94 -16 -8 -8 -24
-31 -35 -52 -11 -21 -30 -52 -42 -69 -13 -17 -23 -35 -23 -41 0 -5 -7 -24 -16
-41 -8 -18 -22 -69 -31 -115 -8 -45 -24 -127 -36 -182 -24 -115 -24 -121 -33
-237 -7 -95 9 -234 33 -281 13 -26 15 -26 41 -13 15 8 52 30 82 51 l54 36 17
-78 c22 -98 63 -212 102 -281 26 -48 28 -55 14 -70 -12 -14 -44 -94 -63 -160
-6 -19 -204 282 -204 310 0 4 -4 8 -8 8 -5 0 -7 -13 -4 -29 3 -25 0 -30 -29
-40 -18 -6 -48 -23 -67 -38 l-35 -26 -19 24 c-88 113 -200 324 -223 424 -4 17
-16 57 -26 90 -45 146 -61 375 -28 396 8 5 9 9 3 9 -6 0 -9 20 -6 56 6 73 -16
70 -38 -4 -8 -29 -23 -60 -32 -71 -45 -52 -47 -62 -43 -181 6 -149 5 -145 49
-280 51 -158 106 -266 199 -393 44 -59 78 -110 76 -111 -2 -2 -42 -34 -89 -71
-47 -37 -108 -88 -136 -114 -28 -25 -64 -57 -80 -71 -16 -14 -69 -70 -118
-124 -84 -91 -90 -96 -98 -75 -5 13 -7 33 -4 44 2 11 6 81 7 155 1 74 7 141
12 148 6 8 5 12 -3 12 -7 0 -10 7 -6 15 3 8 9 22 13 32 4 9 2 14 -3 10 -6 -3
-9 7 -7 26 2 18 4 39 3 47 -2 80 9 1975 12 2010 4 51 -1 60 -37 60 l-35 0 0
-2560z m3825 2086 c19 -44 35 -117 25 -111 -4 2 -10 21 -13 41 -3 20 -18 51
-32 70 -21 27 -23 34 -10 34 9 0 22 -15 30 -34z m-89 -27 c19 -21 19 -21 -9
-8 -15 7 -27 16 -27 21 0 14 16 9 36 -13z m-51 -51 c14 -6 25 -17 25 -25 0 -7
7 -13 15 -13 21 0 47 -44 43 -74 l-3 -25 -43 20 c-30 14 -42 25 -38 35 3 8 2
13 -3 10 -17 -11 -57 56 -45 75 7 12 18 11 49 -3z m1384 -165 c1 -138 0 -354
-2 -390 0 -7 -3 -13 -6 -13 -6 0 -6 -52 -1 -75 7 -32 -4 -91 -18 -102 -16 -11
-16 -12 0 -13 12 0 16 -9 16 -35 0 -30 -2 -33 -15 -20 -8 8 -18 15 -22 15 -20
0 -16 -13 10 -40 34 -33 37 -60 9 -78 -11 -7 -20 -8 -20 -3 0 12 -39 21 -45
11 -7 -11 2 -16 44 -25 23 -5 31 -4 27 4 -4 6 -3 11 2 11 6 0 10 -31 10 -70 0
-53 -3 -70 -14 -70 -8 0 -14 -5 -14 -11 0 -6 6 -9 13 -6 8 3 14 -5 15 -21 2
-24 1 -24 -17 -8 -17 15 -19 15 -25 1 -3 -9 -2 -14 3 -11 5 3 12 -1 15 -10 3
-8 10 -12 16 -9 19 12 10 -7 -12 -24 -12 -10 -18 -23 -14 -29 11 -17 29 -15
22 3 -3 8 -1 15 3 15 5 0 9 -16 9 -35 0 -19 -4 -35 -9 -35 -5 0 -9 -5 -9 -11
0 -5 4 -8 8 -5 4 2 9 -4 9 -15 1 -10 -4 -19 -11 -19 -7 0 -13 -6 -13 -14 0 -8
6 -12 14 -9 21 8 17 -67 -4 -83 -17 -13 -17 -13 0 -14 9 0 17 -7 17 -16 0 -8
-4 -12 -10 -9 -14 9 -12 -9 2 -23 10 -10 10 -15 -2 -22 -8 -5 -10 -10 -4 -10
15 0 17 -82 2 -92 -8 -5 -9 -8 -2 -8 7 0 12 -55 13 -172 1 -95 3 -194 4 -221
1 -26 -2 -47 -6 -47 -4 0 -3 -9 3 -20 8 -14 8 -20 0 -20 -6 0 -8 -5 -5 -10 12
-20 13 -350 1 -350 -8 0 -8 -3 0 -8 15 -10 15 -215 0 -224 -8 -6 -8 -8 2 -8 8
0 12 -16 12 -45 0 -29 -4 -45 -12 -45 -9 0 -10 -2 -2 -8 7 -4 12 -43 13 -94
l2 -86 -68 -7 c-142 -14 -335 -64 -660 -169 -46 -15 -47 -11 -7 34 95 108 196
261 297 447 160 295 217 515 197 763 -15 186 -92 400 -137 383 -12 -5 -12 -7
-1 -14 9 -6 7 -9 -9 -9 -12 0 -25 -4 -28 -10 -5 -9 15 -14 51 -13 7 0 11 -7 9
-16 -1 -9 4 -26 12 -38 8 -12 11 -28 7 -34 -4 -7 -3 -9 4 -5 29 18 63 -186 58
-349 -3 -136 -20 -221 -72 -377 -53 -159 -215 -448 -338 -603 -40 -49 -82
-105 -95 -123 -12 -18 -39 -41 -59 -51 -118 -60 -508 -194 -687 -235 -112 -26
-181 -59 -214 -103 l-20 -28 -1 25 c0 69 31 97 123 107 86 10 106 32 72 77
-19 25 -19 36 0 36 13 0 14 4 5 20 -6 11 -21 20 -34 20 -32 0 -60 33 -51 61 7
21 8 20 28 -15 35 -60 51 -39 22 30 -14 33 -13 38 11 85 14 27 30 46 35 43 5
-3 6 2 3 10 -4 9 1 18 10 22 9 3 14 10 11 14 -5 8 11 40 56 115 10 17 26 45
35 62 9 18 21 30 27 26 5 -3 7 -1 3 5 -3 6 3 26 14 44 29 48 70 136 70 152 0
15 -21 26 -51 26 -10 0 -19 2 -19 4 0 22 50 111 88 155 26 31 58 69 72 85 14
17 45 48 69 71 53 48 245 266 268 303 9 15 24 36 34 47 25 31 63 105 79 155 7
25 17 50 22 56 4 6 5 13 2 17 -3 3 -1 15 6 26 6 12 11 54 12 95 1 77 -26 177
-64 242 l-18 31 -133 7 c-170 9 -406 -8 -822 -59 -66 -8 -143 -15 -172 -15
l-53 0 0 -61 c0 -68 -34 -181 -81 -270 -40 -75 -133 -169 -258 -262 -119 -89
-171 -121 -249 -153 -67 -28 -41 -32 53 -9 33 8 87 14 120 15 33 0 116 14 183
30 132 32 232 38 367 20 45 -6 86 -5 115 1 69 16 152 14 187 -5 53 -27 123
-143 162 -269 30 -99 29 -118 -9 -197 -34 -70 -36 -72 -114 -113 -44 -23 -100
-56 -123 -74 l-43 -33 6 68 c4 46 1 89 -10 135 -15 62 -15 71 0 98 20 41 10
49 -17 15 -29 -37 -46 -14 -18 25 33 46 26 56 -49 68 -26 5 -81 16 -122 24
-375 79 -616 99 -799 67 -30 -6 -55 -9 -56 -7 -39 63 -82 209 -57 194 6 -4 8
0 6 10 -4 13 17 37 65 81 58 51 75 61 95 56 18 -4 54 9 136 52 139 70 237 161
288 265 34 70 55 168 34 155 -7 -4 -12 -13 -12 -19 0 -7 -12 -37 -26 -67 -30
-65 -89 -130 -119 -130 -32 0 -337 57 -368 69 l-27 11 87 81 c79 73 90 80 118
74 16 -3 46 -8 65 -11 28 -4 23 0 -24 18 -82 32 -86 51 -9 41 88 -12 292 -8
305 5 9 9 -6 12 -63 12 -68 0 -290 19 -297 25 -5 4 47 105 54 105 2 0 17 -9
32 -20 26 -19 122 -54 122 -45 0 2 -21 13 -47 25 -57 25 -93 57 -93 81 0 10
11 31 25 48 l26 30 -20 39 c-11 22 -40 109 -65 194 -24 84 -61 190 -80 235
-34 76 -44 113 -30 113 3 0 25 -16 48 -35 57 -46 183 -104 257 -117 63 -11 64
-12 49 -53 -9 -23 -14 -26 -41 -20 l-31 7 50 -73 c82 -122 178 -290 231 -403
l50 -106 36 0 c20 0 114 11 208 25 332 47 652 70 802 57 61 -5 113 -6 117 -3
34 29 -208 417 -355 571 -43 45 -77 83 -75 85 8 9 311 66 326 62 12 -3 11 -5
-5 -6 -23 -1 -31 -15 -14 -25 14 -9 181 37 306 84 125 46 261 110 320 150 22
15 47 29 55 32 25 9 169 121 235 182 33 30 61 56 61 56 1 0 2 -71 3 -157z
m-1327 -20 c48 -21 88 -42 88 -46 0 -5 -22 -32 -49 -60 -45 -47 -51 -50 -63
-35 -7 9 -32 26 -54 38 -44 22 -68 70 -35 70 32 1 72 50 40 50 -5 0 -7 -5 -4
-10 3 -6 -2 -13 -12 -16 -10 -3 -33 -13 -51 -21 -18 -8 -47 -13 -65 -11 -28 3
-29 5 -12 12 75 32 105 47 110 56 9 14 11 14 107 -27z m-173 -108 c79 -39 91
-47 81 -60 -7 -8 -25 -15 -40 -15 -15 0 -42 -11 -61 -25 -19 -13 -92 -54 -164
-91 -183 -94 -293 -123 -495 -130 -149 -6 -156 -6 -174 15 -11 11 -26 21 -35
21 -33 0 -106 36 -144 70 l-39 36 99 46 c291 137 546 192 728 158 61 -11 69
-11 77 4 15 27 68 18 167 -29z m141 -81 c0 -3 -9 -19 -21 -35 -17 -24 -24 -27
-35 -18 -17 14 -18 46 -1 52 17 8 57 8 57 1z m-2869 -167 c-10 -9 -11 -8 -5 6
3 10 9 15 12 12 3 -3 0 -11 -7 -18z m1612 -75 c21 -53 51 -145 66 -203 16 -58
39 -134 52 -168 22 -62 22 -64 4 -97 -26 -49 -57 -53 -122 -19 -106 55 -190
149 -211 236 -14 58 4 137 50 217 31 55 98 132 114 132 5 0 26 -44 47 -98z
m-1606 -14 c-3 -7 -5 -2 -5 12 0 14 2 19 5 13 2 -7 2 -19 0 -25z m523 -260 c0
-5 -4 -8 -10 -8 -5 0 -12 -11 -16 -25 -5 -18 -12 -24 -30 -23 -30 3 -30 5 -1
29 17 15 19 20 9 27 -9 6 -4 9 17 8 17 -1 31 -4 31 -8z m60 2 c13 -8 13 -10
-2 -10 -9 0 -24 -3 -32 -6 -12 -5 -15 -2 -10 10 7 18 22 20 44 6z m-60 -30 c0
-5 -5 -10 -11 -10 -5 0 -7 5 -4 10 3 6 8 10 11 10 2 0 4 -4 4 -10z m883 -39
c31 -53 134 -138 211 -175 73 -34 75 -37 66 -61 -13 -33 -40 -85 -44 -85 -27
0 -173 38 -212 55 -58 26 -134 89 -134 112 0 21 77 183 87 183 5 0 16 -13 26
-29z m-1093 -83 c0 6 4 12 9 12 5 0 7 -9 4 -20 -3 -11 -10 -20 -17 -20 -22 0
-37 17 -30 34 6 15 7 15 20 -1 8 -11 13 -13 14 -5z m275 -38 c7 -12 -22 -12
-50 0 -17 7 -15 9 12 9 17 1 35 -3 38 -9z m592 -35 c53 -17 88 -34 108 -55 48
-50 96 -77 185 -105 47 -15 89 -31 93 -35 12 -10 -96 -56 -188 -79 -66 -16
-245 -38 -347 -42 -20 -1 -19 -2 7 -10 94 -29 479 46 546 107 11 10 22 14 26
10 4 -3 -29 -42 -72 -86 -91 -91 -132 -112 -256 -130 -150 -22 -322 22 -439
111 -97 75 -177 123 -244 149 l-71 28 40 11 c22 6 52 11 66 11 15 0 49 16 75
35 144 104 308 132 471 80z m-971 -41 c32 -19 143 -69 246 -109 201 -80 201
-79 328 -171 109 -79 144 -96 260 -128 114 -31 230 -34 337 -9 70 16 73 16
145 -5 40 -12 131 -33 202 -47 71 -13 134 -29 140 -36 17 -17 -58 -77 -165
-132 l-94 -48 -42 15 c-142 50 -320 160 -335 206 -4 13 -17 12 -99 -4 -153
-30 -317 -101 -489 -211 -60 -39 -69 -49 -122 -146 -84 -155 -78 -149 -124
-114 -22 15 -51 40 -67 54 l-27 25 127 124 c144 140 139 139 -25 -2 -119 -104
-142 -112 -142 -54 0 27 58 294 67 307 1 2 15 -8 29 -22 33 -33 87 -35 244
-11 108 17 181 37 105 29 -22 -2 -91 -7 -153 -10 -102 -6 -116 -4 -146 14 -56
35 -177 206 -223 316 -43 102 -65 205 -45 205 5 0 35 -16 68 -36z m284 -20 c0
-18 -8 -18 -26 0 -10 11 -11 15 -1 19 16 6 27 -1 27 -19z m2717 -339 c5 -4 2
-5 -6 0 -11 6 -13 4 -7 -10 5 -15 4 -16 -9 -5 -8 7 -15 16 -15 20 0 10 27 7
37 -5z m-259 -20 c-3 -3 -9 2 -12 12 -6 14 -5 15 5 6 7 -7 10 -15 7 -18z m139
9 c-3 -3 -12 -4 -19 -1 -8 3 -5 6 6 6 11 1 17 -2 13 -5z m-2799 -72 l23 -18
-37 -139 c-20 -77 -39 -150 -41 -162 -7 -30 -16 -29 -55 6 l-32 29 32 127 c43
172 59 196 110 157z m936 -67 c8 -21 131 -99 229 -146 45 -21 75 -39 66 -39
-10 0 -51 -32 -93 -71 -82 -77 -103 -86 -216 -95 -75 -6 -75 -6 -143 36 l-68
41 -75 -10 c-83 -12 -293 -66 -306 -79 -5 -5 -23 -37 -41 -73 -29 -58 -35 -64
-61 -62 -16 1 -33 6 -38 11 -13 13 95 223 133 259 33 30 47 39 174 109 77 42
176 80 290 109 106 28 141 30 149 10z m-1261 -100 c63 -59 64 -66 14 -113 -35
-33 -84 -145 -113 -260 l-25 -100 44 -69 c25 -37 65 -88 91 -113 52 -50 54
-62 26 -150 -26 -80 -25 -96 3 -124 21 -21 57 -99 63 -135 2 -7 7 -18 13 -24
6 -6 11 -21 11 -32 0 -12 8 -30 18 -41 10 -10 33 -42 52 -71 19 -28 62 -80 95
-115 33 -35 91 -100 128 -145 38 -44 95 -103 128 -129 33 -26 76 -66 95 -88
104 -119 234 -201 370 -236 58 -15 81 -27 116 -60 104 -100 180 -141 269 -146
26 -1 64 -10 85 -20 l38 -18 -34 -8 c-19 -4 -114 -8 -210 -9 -193 -2 -376 17
-500 51 -41 12 -100 28 -130 36 -232 63 -491 185 -578 272 -35 35 -62 75 -56
83 3 5 0 9 -6 9 -6 0 -9 4 -6 9 4 5 0 12 -6 14 -8 3 -6 6 5 6 23 1 23 47 -1
60 -10 5 -18 19 -19 31 -1 12 -4 25 -7 28 -12 11 -46 -32 -52 -67 -4 -20 -13
-47 -20 -61 l-13 -25 -117 120 c-64 66 -123 133 -131 150 -20 38 -20 149 2
285 9 58 18 114 19 125 11 76 59 229 102 324 l35 75 30 -55 c16 -30 37 -70 47
-89 9 -19 20 -36 25 -38 4 -2 7 -10 7 -18 0 -8 6 -14 14 -14 10 0 5 16 -16 58
-83 157 -108 211 -119 257 -15 68 -12 198 7 265 8 30 22 79 30 109 9 30 28 80
43 110 16 31 36 77 46 104 10 26 20 47 24 47 3 0 32 -25 64 -55z m201 -189
c56 -28 78 -48 89 -78 4 -10 13 -18 20 -18 14 0 103 -88 96 -94 -2 -2 -26 -11
-54 -21 -63 -21 -123 -55 -154 -89 -30 -32 -38 -32 -53 -1 -15 32 -42 34 -32
3 18 -61 104 -198 123 -198 4 0 -5 26 -20 58 -16 31 -29 62 -29 69 0 34 112
113 202 142 35 11 39 10 83 -23 26 -20 55 -36 66 -36 10 0 19 -3 19 -7 0 -5
-44 -91 -98 -193 l-97 -185 -55 -19 c-59 -20 -151 -26 -213 -13 -36 8 -38 10
-32 35 3 15 17 46 31 69 23 40 26 41 62 35 102 -17 121 8 29 42 -95 35 -228
168 -243 244 -7 33 39 217 68 277 11 22 31 54 44 72 l25 32 34 -37 c18 -21 58
-51 89 -66z m914 -73 c39 -20 72 -41 72 -47 0 -5 39 -47 88 -92 l87 -82 -37
-16 c-21 -9 -41 -16 -46 -16 -5 0 -36 28 -68 63 -85 89 -194 177 -221 177 -13
0 -23 -2 -23 -5 0 -5 150 -175 188 -213 20 -20 22 -26 10 -41 -52 -72 -100
-144 -110 -168 -6 -15 -14 -82 -18 -148 l-6 -120 -19 40 c-33 70 -29 13 5 -72
24 -60 33 -99 37 -168 5 -85 -11 -367 -24 -429 l-6 -29 64 6 c73 7 141 28 147
45 5 16 -50 15 -116 -2 -49 -13 -53 -13 -47 2 3 8 9 57 12 108 3 51 9 98 14
105 10 16 35 -5 92 -76 21 -27 59 -72 83 -98 24 -27 47 -59 50 -73 7 -28 -21
-81 -51 -98 -34 -19 -78 -55 -146 -122 l-66 -64 -54 72 c-30 40 -82 103 -117
140 -63 66 -63 67 -58 115 3 26 13 144 22 260 l18 213 -29 117 c-40 161 -39
227 7 363 20 58 52 140 72 183 41 89 40 87 23 87 -31 0 -128 -207 -166 -355
l-20 -76 30 -132 c48 -207 48 -202 3 -520 -9 -60 -14 -129 -12 -153 l3 -44
-37 0 c-55 0 -47 -14 24 -40 44 -16 75 -36 108 -70 48 -49 135 -169 128 -176
-9 -8 -127 56 -183 99 -74 58 -384 367 -366 367 6 0 38 -17 69 -39 48 -32 89
-53 112 -56 3 0 11 -4 18 -8 20 -13 15 29 -29 220 -43 188 -59 236 -107 305
-16 24 -37 60 -45 81 -15 35 -15 40 3 82 11 25 47 131 80 237 34 105 75 219
93 252 37 71 66 88 172 106 39 7 99 18 135 25 36 7 70 14 75 14 6 1 43 -15 83
-36z m307 -88 c21 -52 36 -97 34 -100 -3 -3 -19 -7 -35 -11 -28 -5 -35 0 -85
62 -30 38 -72 79 -94 91 l-40 23 35 1 c19 0 55 6 80 13 25 8 50 14 56 15 6 0
28 -42 49 -94z m673 -136 c189 -36 351 -76 368 -90 6 -5 17 -30 23 -55 7 -25
19 -56 27 -69 34 -51 32 -230 -2 -282 -13 -21 -23 -23 -97 -23 -45 0 -142 -3
-214 -7 -107 -5 -133 -3 -133 7 0 37 47 100 115 155 77 62 104 98 37 48 -95
-70 -162 -131 -182 -165 -19 -35 -25 -38 -64 -38 -35 0 -47 -5 -60 -24 -16
-25 -17 -25 -133 -20 -65 3 -174 11 -243 19 -69 8 -152 15 -185 15 -56 0 -80
-5 -207 -41 -33 -9 -51 -10 -58 -3 -6 6 -12 76 -15 160 -4 142 -3 151 21 199
13 28 44 73 69 100 25 28 45 56 45 63 0 16 12 15 36 -3 25 -19 61 -19 115 1
166 60 284 82 442 83 115 1 163 -4 295 -30z m-1635 -299 c-16 -58 -33 -86 -33
-56 0 18 41 119 46 113 2 -1 -4 -27 -13 -57z m2427 -36 c0 -16 -179 -346 -180
-331 0 6 60 168 112 300 12 31 35 48 55 40 7 -3 13 -7 13 -9z m-136 -131 c-20
-54 -52 -142 -70 -196 -18 -54 -56 -139 -83 -189 -28 -49 -74 -148 -102 -219
l-51 -130 15 -143 c13 -117 21 -155 46 -210 48 -107 131 -236 193 -303 32 -34
58 -69 58 -77 0 -15 224 -130 275 -141 56 -12 84 -27 91 -47 9 -31 -6 -38 -93
-45 -63 -4 -90 -2 -122 11 -23 9 -62 16 -86 16 -27 0 -82 14 -137 35 -51 19
-149 47 -216 61 -136 29 -138 29 -290 -27 -30 -10 -66 -19 -81 -19 -34 0 -162
86 -177 120 -8 17 -9 52 -4 115 5 50 9 127 9 171 1 56 5 85 15 93 7 6 17 30
20 54 4 23 15 69 25 102 27 88 34 173 35 425 1 250 -1 240 82 365 43 65 74 83
154 86 l65 3 -3 -50 c-19 -378 -35 -499 -89 -654 -34 -97 -36 -113 -35 -207 2
-65 -4 -129 -14 -173 -15 -67 -15 -71 4 -97 29 -41 82 -89 82 -75 0 7 -16 36
-35 64 -20 28 -33 58 -31 67 14 50 26 166 24 236 -2 66 3 96 29 175 17 52 36
122 42 155 20 112 41 320 41 406 0 48 3 101 6 118 l7 31 98 0 c55 0 99 -2 99
-4 0 -2 -9 -26 -21 -53 -11 -26 -40 -104 -64 -173 -24 -69 -57 -164 -74 -211
-17 -47 -40 -128 -50 -180 -11 -52 -27 -116 -35 -144 -9 -27 -21 -76 -27 -109
-10 -55 -9 -60 16 -95 25 -36 25 -39 10 -81 -32 -91 -9 -136 85 -165 112 -35
261 -143 291 -211 11 -24 26 -44 34 -44 20 0 -26 105 -63 143 -47 49 -169 123
-234 141 -112 32 -124 46 -90 109 26 49 28 84 7 134 -22 52 -19 93 20 244 34
132 181 575 224 672 26 60 26 67 1 67 -36 0 -21 27 38 66 106 70 167 105 170
95 2 -5 -13 -54 -34 -108z m-2329 27 c21 -41 19 -47 -10 -20 -35 33 -31 14 15
-73 40 -74 40 -75 40 -186 0 -61 -4 -111 -8 -111 -4 0 -25 36 -47 79 -41 85
-62 106 -164 164 -56 32 -54 14 5 -48 32 -33 88 -94 126 -135 61 -66 99 -99
119 -100 6 0 25 195 24 248 -1 60 30 -23 50 -134 8 -49 24 -114 34 -144 11
-30 22 -67 25 -82 l6 -28 -63 35 c-35 19 -87 42 -115 50 -77 23 -174 133 -257
293 -36 68 -65 128 -65 132 0 4 26 13 58 19 31 7 82 25 112 41 72 38 95 38
115 0z m1270 -144 c169 -17 225 -26 225 -35 0 -4 -18 -25 -41 -46 -22 -22 -50
-55 -61 -74 -32 -51 -187 -116 -438 -186 l-125 -34 -82 82 -81 82 0 89 c1 100
-8 91 123 127 82 22 241 21 480 -5z m445 21 c0 -2 -10 -15 -21 -28 -24 -27
-100 -143 -114 -174 -5 -11 -12 -103 -15 -204 l-5 -185 -105 -52 -105 -51 -40
27 c-59 41 -156 144 -157 166 0 10 3 32 7 48 11 41 -13 30 -38 -17 -22 -43
-16 -41 -87 -22 -30 8 -71 15 -90 15 -21 0 -46 9 -64 23 l-29 23 128 33 c128
33 303 94 376 131 23 12 48 37 63 63 14 23 39 56 57 72 40 39 59 77 52 103 -5
19 0 21 48 25 90 6 139 7 139 4z m1223 -417 c-46 -43 -169 -135 -220 -165 -18
-11 -33 -22 -33 -26 0 -6 -136 -99 -146 -99 -3 0 -37 -20 -75 -45 -146 -95
-353 -185 -374 -164 -5 5 -12 54 -13 108 l-4 98 46 40 c32 29 61 43 103 53
206 47 458 125 683 213 36 14 67 26 70 26 3 1 -14 -17 -37 -39z m-693 -99 c0
-6 -8 -11 -17 -12 -10 -1 -40 -3 -66 -5 l-49 -4 7 32 c4 18 14 46 22 61 l14
28 45 -44 c24 -24 44 -49 44 -56z m-1210 -8 l85 -16 96 -91 c53 -50 97 -93 98
-96 0 -4 -15 -12 -34 -19 -57 -20 -40 -30 23 -13 l58 15 72 -42 72 -42 -37
-32 c-33 -29 -83 -119 -83 -150 0 -22 -67 -93 -100 -107 -28 -11 -40 -10 -104
11 l-72 24 14 40 c17 48 17 241 1 262 -6 7 -23 13 -38 13 -17 0 -32 9 -41 23
-8 12 -35 42 -59 66 -40 40 -45 50 -49 100 -2 31 -10 62 -16 70 -9 12 -7 13 9
7 11 -4 58 -15 105 -23z m-1455 -123 c3 -5 1 -10 -4 -10 -6 0 -11 5 -11 10 0
6 2 10 4 10 3 0 8 -4 11 -10z m1988 -52 c-3 -35 -11 -73 -17 -86 l-12 -23 -34
23 c-19 13 -52 32 -73 42 -21 10 -37 19 -35 21 7 6 163 85 170 85 3 0 4 -28 1
-62z m-2056 2 c-3 -11 1 -21 9 -24 8 -3 14 -11 14 -17 0 -8 -7 -6 -18 4 -10
10 -21 15 -23 12 -3 -2 -5 5 -6 15 -1 11 3 20 8 20 6 0 7 5 3 12 -5 7 -3 8 5
3 7 -4 11 -15 8 -25z m1458 -47 c28 -27 68 -62 88 -79 l37 -31 -1 -79 c-1
-106 -8 -128 -41 -132 -41 -5 -58 29 -48 98 5 30 9 67 9 83 1 39 -26 35 -34
-5 -11 -55 -36 -128 -44 -128 -4 0 -13 10 -18 23 -11 22 -11 22 -22 -8 -15
-37 -23 -26 -51 68 -20 65 -48 95 -37 40 3 -16 9 -46 13 -68 l7 -40 -66 59
c-37 32 -67 66 -67 76 0 9 31 46 69 82 l68 65 28 -91 c16 -50 32 -95 37 -100
18 -22 19 8 3 98 -23 135 -13 144 70 69z"/>
<path d="M3646 4561 c-3 -4 -1 -13 4 -21 7 -11 11 -11 24 2 14 14 13 16 -4 21
-11 3 -22 2 -24 -2z"/>
<path d="M4982 4398 c2 -6 10 -14 16 -16 7 -2 10 2 6 12 -7 18 -28 22 -22 4z"/>
<path d="M4935 4320 c3 -5 14 -10 23 -10 15 0 15 2 2 10 -20 13 -33 13 -25 0z"/>
<path d="M4986 4275 c4 -8 10 -12 15 -9 11 6 2 24 -11 24 -5 0 -7 -7 -4 -15z"/>
<path d="M5013 4208 c1 -7 -6 -12 -15 -10 -23 4 -23 -14 -2 -22 20 -8 19 -8
28 22 5 13 3 22 -3 22 -6 0 -10 -6 -8 -12z"/>
<path d="M4935 4190 c3 -5 13 -10 21 -10 8 0 14 5 14 10 0 6 -9 10 -21 10 -11
0 -17 -4 -14 -10z"/>
<path d="M4900 4162 c0 -4 10 -13 23 -21 22 -14 22 -14 3 8 -20 22 -26 25 -26
13z"/>
<path d="M4858 4153 c6 -2 18 -2 25 0 6 3 1 5 -13 5 -14 0 -19 -2 -12 -5z"/>
<path d="M4972 4145 c-10 -12 -10 -15 2 -15 7 0 16 -6 19 -14 3 -8 15 -14 25
-13 12 1 18 6 15 15 -3 7 -12 11 -20 7 -12 -4 -14 0 -10 15 6 23 -12 26 -31 5z"/>
<path d="M4850 4109 c0 -11 -5 -29 -10 -40 -6 -10 -7 -19 -2 -19 15 0 34 28
28 39 -4 5 -2 12 4 16 12 7 4 25 -11 25 -5 0 -9 -9 -9 -21z"/>
<path d="M4930 4100 c0 -5 9 -10 21 -10 11 0 17 5 14 10 -3 6 -13 10 -21 10
-8 0 -14 -4 -14 -10z"/>
<path d="M4890 4069 c0 -5 5 -7 10 -4 6 3 10 8 10 11 0 2 -4 4 -10 4 -5 0 -10
-5 -10 -11z"/>
<path d="M4915 4060 c-3 -5 1 -10 9 -10 8 0 18 5 21 10 3 6 -1 10 -9 10 -8 0
-18 -4 -21 -10z"/>
<path d="M4790 4040 c0 -5 5 -10 11 -10 5 0 7 5 4 10 -3 6 -8 10 -11 10 -2 0
-4 -4 -4 -10z"/>
<path d="M4930 4030 c0 -5 7 -7 15 -4 8 4 15 8 15 10 0 2 -7 4 -15 4 -8 0 -15
-4 -15 -10z"/>
<path d="M4740 4021 c0 -5 9 -7 20 -4 11 3 20 7 20 9 0 2 -9 4 -20 4 -11 0
-20 -4 -20 -9z"/>
<path d="M4565 4000 c3 -5 8 -10 11 -10 2 0 4 5 4 10 0 6 -5 10 -11 10 -5 0
-7 -4 -4 -10z"/>
<path d="M4895 4000 c-4 -6 3 -10 14 -10 25 0 27 6 6 13 -8 4 -17 2 -20 -3z"/>
<path d="M4976 4001 c-3 -5 3 -11 15 -14 16 -4 18 -3 8 9 -13 16 -16 17 -23 5z"/>
<path d="M4885 3960 c-3 -5 -2 -10 4 -10 5 0 13 5 16 10 3 6 2 10 -4 10 -5 0
-13 -4 -16 -10z"/>
<path d="M4378 3953 c7 -3 16 -2 19 1 4 3 -2 6 -13 5 -11 0 -14 -3 -6 -6z"/>
<path d="M4940 3939 c0 -5 5 -7 10 -4 6 3 10 8 10 11 0 2 -4 4 -10 4 -5 0 -10
-5 -10 -11z"/>
<path d="M5008 3898 c7 -27 29 -42 36 -23 3 8 1 15 -5 15 -6 0 -9 6 -6 13 3 7
-3 13 -13 13 -11 0 -15 -6 -12 -18z"/>
<path d="M4795 3900 c-3 -5 1 -10 10 -10 9 0 13 5 10 10 -3 6 -8 10 -10 10 -2
0 -7 -4 -10 -10z"/>
<path d="M4492 3828 c-13 -13 -16 -38 -6 -38 8 0 33 32 34 43 0 11 -15 8 -28
-5z"/>
<path d="M4535 3819 c-4 -6 -5 -12 -2 -15 2 -3 7 2 10 11 7 17 1 20 -8 4z"/>
<path d="M4348 3813 c7 -3 16 -2 19 1 4 3 -2 6 -13 5 -11 0 -14 -3 -6 -6z"/>
<path d="M4392 3799 c6 -19 37 -24 52 -9 8 9 6 11 -9 9 -11 -2 -26 0 -34 5 -9
6 -12 5 -9 -5z"/>
<path d="M4605 3800 c-3 -5 -14 -10 -24 -10 -10 0 -21 -9 -24 -20 -6 -24 5
-26 23 -5 7 8 19 15 26 15 8 0 14 7 14 15 0 17 -6 19 -15 5z"/>
<path d="M4668 3797 c14 -17 6 -27 -16 -20 -10 3 -3 -4 13 -16 33 -23 45 -26
45 -11 0 6 -7 10 -16 10 -10 0 -13 6 -9 19 4 12 0 21 -11 25 -13 5 -14 4 -6
-7z"/>
<path d="M4775 3800 c3 -5 8 -10 11 -10 2 0 4 5 4 10 0 6 -5 10 -11 10 -5 0
-7 -4 -4 -10z"/>
<path d="M4830 3796 c0 -21 32 -29 48 -12 14 13 13 14 -6 9 -13 -3 -22 -1 -22
6 0 6 -4 11 -10 11 -5 0 -10 -6 -10 -14z"/>
<path d="M4730 3790 c0 -5 5 -10 10 -10 6 0 10 5 10 10 0 6 -4 10 -10 10 -5 0
-10 -4 -10 -10z"/>
<path d="M4953 3785 c-7 -8 -9 -16 -4 -19 5 -3 12 1 15 10 8 22 4 25 -11 9z"/>
<path d="M5015 3790 c-3 -5 1 -10 9 -10 9 0 16 5 16 10 0 6 -4 10 -9 10 -6 0
-13 -4 -16 -10z"/>
<path d="M4495 3760 c-3 -5 -1 -10 4 -10 6 0 11 5 11 10 0 6 -2 10 -4 10 -3 0
-8 -4 -11 -10z"/>
<path d="M4620 3750 c0 -5 4 -10 9 -10 6 0 13 5 16 10 3 6 -1 10 -9 10 -9 0
-16 -4 -16 -10z"/>
<path d="M4736 3745 c-10 -7 -16 -19 -14 -25 2 -7 12 -4 26 8 35 31 25 45 -12
17z"/>
<path d="M4820 3750 l-25 -7 28 -8 c30 -8 47 0 31 14 -5 4 -20 5 -34 1z"/>
<path d="M4368 3713 c7 -3 16 -2 19 1 4 3 -2 6 -13 5 -11 0 -14 -3 -6 -6z"/>
<path d="M4768 3713 c7 -3 16 -2 19 1 4 3 -2 6 -13 5 -11 0 -14 -3 -6 -6z"/>
<path d="M4860 3710 c0 -5 6 -10 14 -10 8 0 18 5 21 10 3 6 -3 10 -14 10 -12
0 -21 -4 -21 -10z"/>
<path d="M4918 3713 c7 -3 16 -2 19 1 4 3 -2 6 -13 5 -11 0 -14 -3 -6 -6z"/>
<path d="M4948 3699 c-10 -11 -13 -21 -8 -24 13 -8 32 4 25 15 -3 5 3 10 12
12 15 3 15 5 3 9 -8 3 -23 -3 -32 -12z"/>
<path d="M4750 3680 c0 -5 6 -10 14 -10 8 0 18 5 21 10 3 6 -3 10 -14 10 -12
0 -21 -4 -21 -10z"/>
<path d="M4835 3682 c3 -4 25 -8 47 -9 23 -2 38 0 34 5 -4 4 -26 8 -47 8 -22
1 -37 -1 -34 -4z"/>
<path d="M4455 3670 c-3 -5 -1 -10 4 -10 6 0 11 5 11 10 0 6 -2 10 -4 10 -3 0
-8 -4 -11 -10z"/>
<path d="M4870 3650 c0 -5 4 -10 9 -10 6 0 13 5 16 10 3 6 -1 10 -9 10 -9 0
-16 -4 -16 -10z"/>
<path d="M4940 3645 c7 -8 17 -15 22 -15 6 0 5 7 -2 15 -7 8 -17 15 -22 15 -6
0 -5 -7 2 -15z"/>
<path d="M4560 3640 c0 -5 5 -10 11 -10 5 0 7 5 4 10 -3 6 -8 10 -11 10 -2 0
-4 -4 -4 -10z"/>
<path d="M4656 3635 c4 -8 8 -15 10 -15 2 0 4 7 4 15 0 8 -4 15 -10 15 -5 0
-7 -7 -4 -15z"/>
<path d="M4754 3626 c0 -23 25 -48 40 -38 5 3 -1 10 -15 15 -20 8 -21 11 -6
14 22 6 22 19 -1 25 -13 4 -18 -1 -18 -16z"/>
<path d="M4848 3623 c7 -3 16 -2 19 1 4 3 -2 6 -13 5 -11 0 -14 -3 -6 -6z"/>
<path d="M4890 3620 c0 -5 9 -10 19 -10 11 0 23 5 26 10 4 6 -5 10 -19 10 -14
0 -26 -4 -26 -10z"/>
<path d="M4944 3595 c-4 -9 4 -23 17 -34 15 -12 26 -15 28 -9 2 6 -4 17 -13
23 -17 13 -23 30 -6 20 6 -3 10 -1 10 4 0 17 -30 13 -36 -4z"/>
<path d="M4990 3590 c0 -5 5 -10 10 -10 6 0 10 5 10 10 0 6 -4 10 -10 10 -5 0
-10 -4 -10 -10z"/>
<path d="M5034 3569 c-3 -6 -1 -16 5 -22 8 -8 11 -5 11 11 0 24 -5 28 -16 11z"/>
<path d="M4930 3530 c-8 -5 -12 -11 -9 -14 2 -3 11 -1 19 4 8 5 12 11 9 14 -2
3 -11 1 -19 -4z"/>
<path d="M4766 3517 c3 -10 9 -15 12 -12 3 3 0 11 -7 18 -10 9 -11 8 -5 -6z"/>
<path d="M5006 3514 c-8 -21 -8 -24 3 -24 12 0 22 28 12 35 -5 3 -12 -2 -15
-11z"/>
<path d="M4700 3510 c0 -5 5 -10 11 -10 5 0 7 5 4 10 -3 6 -8 10 -11 10 -2 0
-4 -4 -4 -10z"/>
<path d="M4938 3493 c7 -3 16 -2 19 1 4 3 -2 6 -13 5 -11 0 -14 -3 -6 -6z"/>
<path d="M4750 3479 c0 -5 5 -7 10 -4 6 3 10 8 10 11 0 2 -4 4 -10 4 -5 0 -10
-5 -10 -11z"/>
<path d="M4749 3451 c9 -6 11 -16 7 -27 -6 -15 -4 -16 5 -7 14 14 5 43 -13 43
-10 0 -9 -3 1 -9z"/>
<path d="M4780 3439 c0 -5 5 -7 10 -4 6 3 10 8 10 11 0 2 -4 4 -10 4 -5 0 -10
-5 -10 -11z"/>
<path d="M4979 3427 c6 -8 8 -17 4 -21 -4 -4 0 -4 10 -1 14 6 14 9 2 21 -17
18 -31 18 -16 1z"/>
<path d="M4792 3410 c2 -8 18 -16 34 -17 18 -1 22 0 9 4 -11 3 -26 10 -34 17
-11 9 -13 8 -9 -4z"/>
<path d="M4590 3406 c0 -2 7 -9 15 -16 13 -11 14 -10 9 4 -5 14 -24 23 -24 12z"/>
<path d="M4974 3318 c-7 -11 18 -10 36 2 11 7 10 9 -8 7 -13 -1 -26 -5 -28 -9z"/>
<path d="M5020 3300 c0 -5 5 -10 11 -10 5 0 7 5 4 10 -3 6 -8 10 -11 10 -2 0
-4 -4 -4 -10z"/>
<path d="M4887 3273 c-3 -5 8 -8 24 -8 16 0 29 3 29 8 0 4 -11 7 -24 7 -14 0
-27 -3 -29 -7z"/>
<path d="M5015 3232 c9 -18 20 -30 25 -27 13 8 13 26 1 23 -5 -2 -17 6 -26 17
-15 18 -15 17 0 -13z"/>
<path d="M4993 3192 c-17 -11 -10 -45 15 -70 21 -21 22 -21 22 -2 0 11 -7 23
-15 26 -18 7 -20 31 -3 36 7 3 8 7 2 11 -5 3 -15 3 -21 -1z"/>
<path d="M4601 3164 c0 -11 3 -14 6 -6 3 7 2 16 -1 19 -3 4 -6 -2 -5 -13z"/>
<path d="M4465 3160 c-3 -6 1 -7 9 -4 18 7 21 14 7 14 -6 0 -13 -4 -16 -10z"/>
<path d="M4540 3160 c-12 -8 -11 -10 8 -10 12 0 22 5 22 10 0 13 -11 13 -30 0z"/>
<path d="M4637 3146 c-3 -8 -18 -16 -34 -18 -27 -3 -27 -3 10 -15 32 -10 38
-9 33 2 -3 8 0 16 7 18 9 3 9 8 1 16 -9 10 -13 9 -17 -3z"/>
<path d="M4408 3133 c7 -3 16 -2 19 1 4 3 -2 6 -13 5 -11 0 -14 -3 -6 -6z"/>
<path d="M4356 3091 c-4 -5 1 -8 9 -7 21 3 31 16 12 16 -9 0 -18 -4 -21 -9z"/>
<path d="M4641 3091 c-7 -5 -10 -14 -7 -20 5 -8 11 -7 22 3 24 24 14 35 -15
17z"/>
<path d="M4838 3093 c6 -2 18 -2 25 0 6 3 1 5 -13 5 -14 0 -19 -2 -12 -5z"/>
<path d="M4980 3080 c0 -5 5 -10 10 -10 6 0 10 5 10 10 0 6 -4 10 -10 10 -5 0
-10 -4 -10 -10z"/>
<path d="M4430 3070 c-13 -8 -12 -10 3 -10 9 0 17 5 17 10 0 12 -1 12 -20 0z"/>
<path d="M4387 3059 c7 -7 15 -10 18 -7 3 3 -2 9 -12 12 -14 6 -15 5 -6 -5z"/>
<path d="M4450 3029 c0 -5 5 -7 10 -4 6 3 10 8 10 11 0 2 -4 4 -10 4 -5 0 -10
-5 -10 -11z"/>
<path d="M4615 3026 c3 -11 0 -23 -7 -28 -9 -5 -10 -8 -1 -8 19 0 25 18 13 37
-11 17 -11 16 -5 -1z"/>
<path d="M4995 3031 c6 -11 45 -10 45 1 0 4 -12 8 -26 8 -14 0 -23 -4 -19 -9z"/>
<path d="M4523 2993 c-10 -10 -13 -14 -6 -9 7 4 22 6 34 3 16 -4 18 -3 8 9
-14 17 -13 18 -36 -3z"/>
<path d="M4355 2990 c-4 -6 -1 -9 7 -8 7 2 12 -3 10 -10 -1 -8 2 -11 7 -7 11
6 3 35 -9 35 -5 0 -12 -5 -15 -10z"/>
<path d="M4465 2970 c-3 -6 1 -7 9 -4 18 7 21 14 7 14 -6 0 -13 -4 -16 -10z"/>
<path d="M4421 2954 c0 -11 3 -14 6 -6 3 7 2 16 -1 19 -3 4 -6 -2 -5 -13z"/>
<path d="M4533 2934 c8 -45 11 -49 34 -35 17 10 17 10 1 11 -17 0 -23 16 -19
48 1 6 -3 12 -10 12 -8 0 -10 -12 -6 -36z"/>
<path d="M4985 2940 c-4 -6 3 -10 14 -10 25 0 27 6 6 13 -8 4 -17 2 -20 -3z"/>
<path d="M4441 2921 c-9 -6 -10 -11 -2 -15 6 -4 11 -4 11 1 0 4 4 2 9 -6 6 -9
11 -10 15 -2 4 6 2 11 -4 11 -6 0 -8 5 -5 10 8 12 -5 13 -24 1z"/>
<path d="M4575 2880 c-4 -6 6 -10 22 -10 22 0 25 2 13 10 -19 12 -27 12 -35 0z"/>
<path d="M4735 2860 c-16 -7 -17 -9 -3 -9 9 -1 20 4 23 9 7 11 7 11 -20 0z"/>
<path d="M4440 2849 c0 -6 -9 -8 -22 -4 -17 6 -20 4 -15 -10 4 -9 7 -21 7 -27
0 -6 10 0 23 14 13 14 30 28 38 31 9 3 6 6 -8 6 -13 1 -23 -4 -23 -10z"/>
<path d="M4550 2856 c0 -2 7 -9 15 -16 13 -11 14 -10 9 4 -5 14 -24 23 -24 12z"/>
<path d="M4460 2820 c0 -5 4 -10 10 -10 5 0 7 -8 3 -17 -5 -14 -3 -16 7 -6 7
6 10 19 7 27 -7 18 -27 22 -27 6z"/>
<path d="M4598 2803 c7 -3 16 -2 19 1 4 3 -2 6 -13 5 -11 0 -14 -3 -6 -6z"/>
<path d="M4510 2790 c0 -5 10 -10 23 -11 12 0 16 -3 10 -6 -7 -2 -13 -9 -13
-15 0 -7 5 -6 14 2 8 6 12 18 9 26 -6 16 -43 19 -43 4z"/>
<path d="M4640 2790 c0 -5 9 -10 21 -10 11 0 17 5 14 10 -3 6 -13 10 -21 10
-8 0 -14 -4 -14 -10z"/>
<path d="M4971 2744 c0 -11 3 -14 6 -6 3 7 2 16 -1 19 -3 4 -6 -2 -5 -13z"/>
<path d="M4600 2722 c0 -5 7 -13 16 -16 10 -4 14 -1 12 6 -5 15 -28 23 -28 10z"/>
<path d="M4410 2689 c0 -5 5 -7 10 -4 6 3 10 8 10 11 0 2 -4 4 -10 4 -5 0 -10
-5 -10 -11z"/>
<path d="M4612 2679 c5 -16 36 -20 45 -6 3 7 3 9 -2 5 -4 -4 -17 -3 -27 3 -16
8 -19 8 -16 -2z"/>
<path d="M4373 2648 c-26 -13 -29 -23 -9 -31 9 -3 21 4 30 19 18 26 13 29 -21
12z"/>
<path d="M4430 2640 c0 -5 4 -10 9 -10 6 0 13 5 16 10 3 6 -1 10 -9 10 -9 0
-16 -4 -16 -10z"/>
<path d="M4630 2611 c0 -6 5 -13 10 -16 6 -3 10 1 10 9 0 9 -4 16 -10 16 -5 0
-10 -4 -10 -9z"/>
<path d="M4356 2591 c-4 -5 -3 -16 0 -25 3 -9 1 -16 -5 -16 -6 0 -11 -5 -11
-12 0 -9 3 -9 11 -1 6 6 19 9 28 6 12 -4 13 -3 2 5 -8 6 -11 18 -6 31 6 21 -8
30 -19 12z"/>
<path d="M4556 2591 c-3 -5 -15 -7 -25 -4 -10 3 -22 0 -26 -7 -5 -8 4 -10 31
-8 20 2 39 9 42 16 4 14 -14 17 -22 3z"/>
<path d="M4735 2590 c3 -5 8 -10 11 -10 2 0 4 5 4 10 0 6 -5 10 -11 10 -5 0
-7 -4 -4 -10z"/>
<path d="M4730 2531 c0 -5 7 -12 16 -15 14 -5 15 -4 4 9 -14 17 -20 19 -20 6z"/>
<path d="M4160 2516 c0 -9 7 -16 16 -16 17 0 14 22 -4 28 -7 2 -12 -3 -12 -12z"/>
<path d="M4235 2520 c-3 -5 1 -10 9 -10 8 0 18 5 21 10 3 6 -1 10 -9 10 -8 0
-18 -4 -21 -10z"/>
<path d="M4310 2522 c1 -13 30 -46 30 -35 0 7 9 15 20 18 31 10 24 21 -15 22
-19 1 -35 -2 -35 -5z"/>
<path d="M3270 2490 c-22 -12 -64 -105 -57 -124 8 -21 27 -20 27 1 0 9 14 40
30 70 38 67 38 76 0 53z"/>
<path d="M4463 2483 c-18 -2 -33 -8 -33 -14 0 -5 4 -9 9 -9 5 0 11 -9 14 -21
4 -15 -1 -22 -19 -30 -16 -5 -22 -13 -18 -21 6 -9 9 -9 12 0 2 7 10 12 17 12
14 0 25 21 25 49 0 10 10 23 23 29 23 11 22 11 -30 5z"/>
<path d="M4375 2470 c-3 -5 -2 -10 4 -10 5 0 13 5 16 10 3 6 2 10 -4 10 -5 0
-13 -4 -16 -10z"/>
<path d="M4610 2424 c0 -14 3 -14 15 -4 8 7 15 14 15 16 0 2 -7 4 -15 4 -8 0
-15 -7 -15 -16z"/>
<path d="M4521 2403 c0 -4 4 -17 9 -28 8 -19 9 -19 9 2 1 12 -3 25 -9 28 -5 3
-10 3 -9 -2z"/>
<path d="M4448 2373 c7 -3 16 -2 19 1 4 3 -2 6 -13 5 -11 0 -14 -3 -6 -6z"/>
<path d="M4397 2350 c-3 -13 0 -20 8 -20 8 0 13 9 12 20 -1 11 -4 20 -8 20 -4
0 -9 -9 -12 -20z"/>
<path d="M4628 2363 c7 -3 16 -2 19 1 4 3 -2 6 -13 5 -11 0 -14 -3 -6 -6z"/>
<path d="M4563 2340 c4 -15 0 -20 -16 -21 -12 0 -16 -3 -9 -6 19 -7 14 -20
-10 -28 -14 -4 -18 -8 -10 -12 6 -2 12 -11 12 -19 0 -8 3 -14 8 -14 19 1 30
17 27 43 -2 17 2 30 10 33 14 6 8 44 -7 44 -6 0 -8 -9 -5 -20z"/>
<path d="M4308 2338 c5 -5 16 -8 23 -6 8 3 3 7 -10 11 -17 4 -21 3 -13 -5z"/>
<path d="M4479 2348 c-12 -39 3 -52 21 -18 9 16 8 20 -5 20 -8 0 -15 -1 -16
-2z"/>
<path d="M4325 2310 c-3 -5 1 -10 9 -10 9 0 16 5 16 10 0 6 -4 10 -9 10 -6 0
-13 -4 -16 -10z"/>
<path d="M4665 2310 c-4 -6 -11 -8 -16 -5 -5 4 -9 2 -9 -3 0 -12 29 -24 41
-16 12 7 12 34 0 34 -6 0 -13 -5 -16 -10z"/>
<path d="M4176 2295 c4 -8 8 -15 10 -15 2 0 4 7 4 15 0 8 -4 15 -10 15 -5 0
-7 -7 -4 -15z"/>
<path d="M4330 2272 c0 -5 14 -7 30 -4 17 2 30 6 30 8 0 2 -13 4 -30 4 -16 0
-30 -4 -30 -8z"/>
<path d="M4980 2240 c0 -5 5 -10 11 -10 5 0 7 5 4 10 -3 6 -8 10 -11 10 -2 0
-4 -4 -4 -10z"/>
<path d="M4168 2233 c7 -3 16 -2 19 1 4 3 -2 6 -13 5 -11 0 -14 -3 -6 -6z"/>
<path d="M4540 2223 c-13 -15 -12 -16 4 -10 10 4 22 7 27 7 6 0 7 5 4 10 -9
14 -18 12 -35 -7z"/>
<path d="M4430 2200 c0 -5 7 -10 16 -10 8 0 12 5 9 10 -3 6 -10 10 -16 10 -5
0 -9 -4 -9 -10z"/>
<path d="M4538 2178 c9 -9 15 -9 24 0 9 9 7 12 -12 12 -19 0 -21 -3 -12 -12z"/>
<path d="M4190 2171 c0 -6 4 -13 10 -16 6 -3 7 1 4 9 -7 18 -14 21 -14 7z"/>
<path d="M4365 2160 c7 -12 32 -13 39 -2 2 4 -7 9 -20 10 -15 1 -22 -2 -19 -8z"/>
<path d="M4504 2145 c11 -8 22 -12 25 -9 6 6 -19 24 -34 24 -5 -1 -1 -7 9 -15z"/>
<path d="M4057 2135 c3 -8 9 -12 14 -9 12 7 11 11 -5 17 -10 4 -13 1 -9 -8z"/>
<path d="M4560 2140 c-12 -7 -8 -10 14 -10 24 0 27 -2 16 -15 -10 -12 -10 -15
4 -15 19 0 21 21 4 38 -14 14 -19 15 -38 2z"/>
<path d="M4310 2114 c0 -8 5 -12 10 -9 6 3 10 10 10 16 0 5 -4 9 -10 9 -5 0
-10 -7 -10 -16z"/>
<path d="M4952 2114 c9 -9 21 -15 27 -13 6 2 -2 10 -17 17 -25 11 -25 11 -10
-4z"/>
<path d="M4295 2070 c3 -5 8 -10 11 -10 2 0 4 5 4 10 0 6 -5 10 -11 10 -5 0
-7 -4 -4 -10z"/>
<path d="M4120 2040 c0 -5 5 -10 10 -10 6 0 10 5 10 10 0 6 -4 10 -10 10 -5 0
-10 -4 -10 -10z"/>
<path d="M4954 2018 c11 -16 23 -25 32 -21 18 6 12 29 -6 25 -7 -1 -19 3 -28
10 -12 10 -12 8 2 -14z"/>
<path d="M4168 1993 c7 -3 16 -2 19 1 4 3 -2 6 -13 5 -11 0 -14 -3 -6 -6z"/>
<path d="M4961 1968 c-1 -20 24 -24 35 -6 5 7 2 9 -9 5 -9 -3 -18 -1 -21 6 -2
7 -5 4 -5 -5z"/>
<path d="M4700 1940 c0 -5 5 -10 11 -10 5 0 7 5 4 10 -3 6 -8 10 -11 10 -2 0
-4 -4 -4 -10z"/>
<path d="M3925 1890 c-3 -5 -2 -10 4 -10 5 0 13 5 16 10 3 6 2 10 -4 10 -5 0
-13 -4 -16 -10z"/>
<path d="M3950 1680 c0 -5 4 -10 9 -10 6 0 13 5 16 10 3 6 -1 10 -9 10 -9 0
-16 -4 -16 -10z"/>
<path d="M3986 1647 c3 -10 9 -15 12 -12 3 3 0 11 -7 18 -10 9 -11 8 -5 -6z"/>
<path d="M3628 1593 c7 -3 16 -2 19 1 4 3 -2 6 -13 5 -11 0 -14 -3 -6 -6z"/>
<path d="M3890 1560 c20 -13 33 -13 25 0 -3 6 -14 10 -23 10 -15 0 -15 -2 -2
-10z"/>
<path d="M3908 1523 c7 -3 16 -2 19 1 4 3 -2 6 -13 5 -11 0 -14 -3 -6 -6z"/>
<path d="M3720 1510 c0 -5 7 -10 15 -10 8 0 15 5 15 10 0 6 -7 10 -15 10 -8 0
-15 -4 -15 -10z"/>
<path d="M4215 1510 c-3 -5 -1 -10 4 -10 6 0 11 5 11 10 0 6 -2 10 -4 10 -3 0
-8 -4 -11 -10z"/>
<path d="M3916 1473 c-11 -11 -6 -23 9 -23 8 0 15 4 15 9 0 13 -16 22 -24 14z"/>
<path d="M4080 1470 c0 -5 5 -10 11 -10 5 0 7 5 4 10 -3 6 -8 10 -11 10 -2 0
-4 -4 -4 -10z"/>
<path d="M3820 1460 c0 -5 5 -10 11 -10 5 0 7 5 4 10 -3 6 -8 10 -11 10 -2 0
-4 -4 -4 -10z"/>
<path d="M3720 1389 c0 -5 5 -7 10 -4 6 3 10 8 10 11 0 2 -4 4 -10 4 -5 0 -10
-5 -10 -11z"/>
<path d="M3945 1390 c3 -5 11 -10 16 -10 6 0 7 5 4 10 -3 6 -11 10 -16 10 -6
0 -7 -4 -4 -10z"/>
<path d="M1930 3384 c-74 -15 -238 -72 -246 -85 -2 -4 21 1 53 12 32 12 117
36 188 54 128 33 132 47 5 19z"/>
<path d="M2106 2609 c-39 -31 -25 -34 19 -4 21 14 31 25 23 25 -9 0 -27 -10
-42 -21z"/>
<path d="M740 1889 c0 -6 7 -17 15 -26 8 -8 13 -19 10 -24 -4 -5 -2 -9 3 -9 9
0 24 -40 21 -56 0 -4 5 -10 12 -15 11 -6 10 -12 -3 -26 -9 -10 -27 -45 -39
-77 -18 -47 -20 -62 -11 -77 7 -10 12 -29 12 -41 1 -13 13 7 29 47 15 39 37
86 49 105 26 41 28 66 7 74 -9 3 -34 35 -56 71 -42 66 -49 74 -49 54z"/>
<path d="M710 1529 c0 -5 -4 -8 -9 -4 -5 3 -12 1 -15 -4 -3 -5 1 -12 10 -15 8
-3 13 -10 10 -15 -3 -5 1 -12 10 -15 21 -8 24 -8 24 5 0 5 -5 7 -11 3 -8 -4
-9 3 -4 25 4 20 3 31 -4 31 -6 0 -11 -5 -11 -11z"/>
<path d="M660 1486 c0 -2 8 -10 18 -17 15 -13 16 -12 3 4 -13 16 -21 21 -21
13z"/>
<path d="M585 1340 c3 -5 13 -10 21 -10 8 0 12 5 9 10 -3 6 -13 10 -21 10 -8
0 -12 -4 -9 -10z"/>
<path d="M558 1324 c-4 -5 0 -18 8 -29 15 -20 17 -12 5 19 -4 11 -10 15 -13
10z"/>
<path d="M621 1284 c-1 -12 6 -25 15 -28 13 -5 14 -3 7 6 -6 7 -13 20 -16 28
-4 10 -6 8 -6 -6z"/>
<path d="M645 1290 c3 -5 8 -10 11 -10 2 0 4 5 4 10 0 6 -5 10 -11 10 -5 0 -7
-4 -4 -10z"/>
<path d="M775 1270 c3 -5 8 -10 11 -10 2 0 4 5 4 10 0 6 -5 10 -11 10 -5 0 -7
-4 -4 -10z"/>
<path d="M660 1190 c0 -11 2 -20 3 -20 2 0 14 9 27 20 l23 20 -26 0 c-20 0
-27 -5 -27 -20z"/>
<path d="M1090 1193 c8 -3 19 -11 23 -17 6 -7 7 -6 4 4 -2 8 -12 16 -23 17
-13 2 -15 1 -4 -4z"/>
<path d="M1623 2484 c-30 -43 -155 -343 -161 -388 -4 -32 -2 -37 12 -35 11 3
27 33 45 84 16 44 52 140 81 214 52 136 60 177 23 125z"/>
<path d="M2866 671 c-14 -5 -16 -10 -7 -15 15 -10 61 1 61 14 0 12 -26 12 -54
1z"/>
<path d="M2842 553 c2 -10 17 -20 37 -24 18 -4 46 -16 62 -28 34 -25 58 -29
38 -5 -16 20 -109 74 -127 74 -8 0 -12 -8 -10 -17z"/>
<path d="M2480 1362 c0 -10 89 -56 96 -49 3 3 -12 17 -33 31 -37 26 -63 33
-63 18z"/>
<path d="M1966 5061 c-14 -32 -26 -73 -26 -90 0 -30 -4 -34 -77 -67 -81 -37
-207 -113 -199 -121 2 -3 35 13 73 36 68 40 170 81 204 81 13 0 19 -12 24 -50
4 -27 11 -50 17 -50 6 0 8 9 5 20 -7 28 11 43 95 78 68 28 250 72 297 72 26 0
28 25 4 35 -15 5 -16 7 -3 14 22 12 148 30 284 41 108 8 122 12 145 35 l26 25
-73 0 c-65 0 -72 -2 -72 -20 0 -17 -7 -20 -48 -20 -148 0 -404 -42 -571 -94
-46 -14 -87 -24 -89 -21 -3 2 5 31 17 62 35 92 36 93 14 93 -15 0 -27 -16 -47
-59z m364 -61 c0 -5 -4 -10 -10 -10 -5 0 -10 5 -10 10 0 6 5 10 10 10 6 0 10
-4 10 -10z"/>
<path d="M575 4940 c-3 -5 -1 -10 4 -10 6 0 11 5 11 10 0 6 -2 10 -4 10 -3 0
-8 -4 -11 -10z"/>
<path d="M1163 4915 c-17 -7 -34 -11 -37 -8 -3 4 -6 1 -6 -5 0 -7 -4 -12 -10
-12 -16 0 -61 -43 -76 -72 -19 -37 -17 -77 5 -114 26 -43 118 -87 192 -92 50
-4 58 -2 68 17 16 30 39 27 33 -4 -3 -20 1 -27 22 -35 30 -11 32 -18 12 -34
-15 -12 -5 -56 13 -56 16 0 111 102 105 112 -4 6 -25 7 -51 3 -43 -6 -44 -6
-31 14 7 12 16 21 20 21 14 0 58 99 58 128 0 22 -12 41 -49 75 -74 69 -190 96
-268 62z m174 -52 c10 -10 14 -15 8 -12 -5 4 -23 11 -40 17 -24 8 -26 11 -9
11 12 1 30 -7 41 -16z m-34 -54 c53 -28 46 -32 -15 -9 -29 11 -61 20 -70 20
-10 0 -18 5 -18 11 0 14 53 2 103 -22z m-188 -58 c-3 -6 5 -15 17 -22 20 -11
21 -10 11 2 -10 12 -8 15 7 15 10 0 18 -5 17 -11 -1 -5 4 -9 12 -7 8 2 18 -3
22 -10 6 -9 9 -9 9 -1 0 6 9 10 20 8 11 -2 20 1 20 6 0 11 41 -8 52 -25 16
-23 7 -36 -23 -36 -17 0 -28 4 -24 10 3 6 1 10 -4 10 -6 0 -11 -5 -11 -10 0
-15 -99 -2 -127 16 -25 16 -31 49 -10 57 18 8 19 8 12 -2z m125 -5 c0 -2 -9
-6 -20 -9 -11 -3 -20 -1 -20 4 0 5 9 9 20 9 11 0 20 -2 20 -4z"/>
<path d="M648 4913 c7 -3 16 -2 19 1 4 3 -2 6 -13 5 -11 0 -14 -3 -6 -6z"/>
<path d="M4278 4853 c7 -3 16 -2 19 1 4 3 -2 6 -13 5 -11 0 -14 -3 -6 -6z"/>
<path d="M4410 4840 c0 -5 5 -10 11 -10 5 0 7 5 4 10 -3 6 -8 10 -11 10 -2 0
-4 -4 -4 -10z"/>
<path d="M4648 4833 c7 -3 16 -2 19 1 4 3 -2 6 -13 5 -11 0 -14 -3 -6 -6z"/>
<path d="M2080 4760 c0 -6 7 -10 15 -10 8 0 15 2 15 4 0 2 -7 6 -15 10 -8 3
-15 1 -15 -4z"/>
<path d="M1615 4744 c-8 -9 -15 -33 -15 -55 0 -34 5 -42 33 -59 39 -24 41 -24
62 -4 17 18 15 46 -8 93 -16 32 -52 45 -72 25z"/>
<path d="M4617 4718 c2 -5 13 -8 24 -8 10 0 19 3 19 8 0 4 -11 7 -24 7 -13 0
-22 -3 -19 -7z"/>
<path d="M4850 4700 c0 -5 5 -10 11 -10 5 0 7 5 4 10 -3 6 -8 10 -11 10 -2 0
-4 -4 -4 -10z"/>
<path d="M4188 4653 c7 -3 16 -2 19 1 4 3 -2 6 -13 5 -11 0 -14 -3 -6 -6z"/>
<path d="M2370 4629 c0 -5 5 -7 10 -4 6 3 10 8 10 11 0 2 -4 4 -10 4 -5 0 -10
-5 -10 -11z"/>
<path d="M4210 4619 c0 -5 5 -7 10 -4 6 3 10 8 10 11 0 2 -4 4 -10 4 -5 0 -10
-5 -10 -11z"/>
<path d="M4685 4619 c-11 -16 -1 -19 13 -3 7 8 8 14 3 14 -5 0 -13 -5 -16 -11z"/>
<path d="M4528 4513 c7 -3 16 -2 19 1 4 3 -2 6 -13 5 -11 0 -14 -3 -6 -6z"/>
<path d="M4047 4399 c7 -7 15 -10 18 -7 3 3 -2 9 -12 12 -14 6 -15 5 -6 -5z"/>
</g>
</svg>
